<mxfile host="app.diagrams.net" modified="2020-08-17T12:18:53.500Z" agent="5.0 (Windows NT 10.0; Win64; x64) AppleWebKit/537.36 (KHTML, like Gecko) Chrome/84.0.4147.125 Safari/537.36 Edg/84.0.522.59" etag="Pr2BSCDNh_CC_bfGdnVA" version="13.6.2" type="github">
  <diagram id="4qptS2baho3q5u07aVnv" name="Page-1">
    <mxGraphModel dx="1038" dy="580" grid="1" gridSize="10" guides="1" tooltips="1" connect="1" arrows="1" fold="1" page="1" pageScale="1" pageWidth="827" pageHeight="1169" math="0" shadow="0">
      <root>
        <mxCell id="0" />
        <mxCell id="1" parent="0" />
        <mxCell id="KvPupSMHEYE9dG7mP5cm-11" style="edgeStyle=orthogonalEdgeStyle;rounded=0;orthogonalLoop=1;jettySize=auto;html=1;exitX=0.5;exitY=1;exitDx=0;exitDy=0;exitPerimeter=0;entryX=0.5;entryY=0;entryDx=0;entryDy=0;fillColor=#d5e8d4;strokeColor=#B30707;" edge="1" parent="1" source="KvPupSMHEYE9dG7mP5cm-1" target="KvPupSMHEYE9dG7mP5cm-3">
          <mxGeometry relative="1" as="geometry" />
        </mxCell>
        <mxCell id="KvPupSMHEYE9dG7mP5cm-1" value="START" style="strokeWidth=2;html=1;shape=mxgraph.flowchart.terminator;whiteSpace=wrap;fillColor=#d5e8d4;strokeColor=#B30707;" vertex="1" parent="1">
          <mxGeometry x="230" y="10" width="210" height="100" as="geometry" />
        </mxCell>
        <mxCell id="KvPupSMHEYE9dG7mP5cm-2" value="STOP" style="strokeWidth=2;html=1;shape=mxgraph.flowchart.terminator;whiteSpace=wrap;fillColor=#d5e8d4;strokeColor=#B30707;" vertex="1" parent="1">
          <mxGeometry x="230" y="900" width="210" height="100" as="geometry" />
        </mxCell>
        <mxCell id="KvPupSMHEYE9dG7mP5cm-12" style="edgeStyle=orthogonalEdgeStyle;rounded=0;orthogonalLoop=1;jettySize=auto;html=1;exitX=0.5;exitY=1;exitDx=0;exitDy=0;entryX=0.5;entryY=0;entryDx=0;entryDy=0;entryPerimeter=0;fillColor=#d5e8d4;strokeColor=#B30707;" edge="1" parent="1" source="KvPupSMHEYE9dG7mP5cm-3" target="KvPupSMHEYE9dG7mP5cm-4">
          <mxGeometry relative="1" as="geometry" />
        </mxCell>
        <mxCell id="KvPupSMHEYE9dG7mP5cm-3" value="n1,n2,n3" style="shape=parallelogram;html=1;strokeWidth=2;perimeter=parallelogramPerimeter;whiteSpace=wrap;rounded=1;arcSize=12;size=0.23;fillColor=#d5e8d4;strokeColor=#B30707;" vertex="1" parent="1">
          <mxGeometry x="240" y="160" width="190" height="90" as="geometry" />
        </mxCell>
        <mxCell id="KvPupSMHEYE9dG7mP5cm-13" style="edgeStyle=orthogonalEdgeStyle;rounded=0;orthogonalLoop=1;jettySize=auto;html=1;exitX=1;exitY=0.5;exitDx=0;exitDy=0;exitPerimeter=0;entryX=0;entryY=0.5;entryDx=0;entryDy=0;entryPerimeter=0;fillColor=#d5e8d4;strokeColor=#B30707;" edge="1" parent="1" source="KvPupSMHEYE9dG7mP5cm-4" target="KvPupSMHEYE9dG7mP5cm-7">
          <mxGeometry relative="1" as="geometry" />
        </mxCell>
        <mxCell id="KvPupSMHEYE9dG7mP5cm-14" style="edgeStyle=orthogonalEdgeStyle;rounded=0;orthogonalLoop=1;jettySize=auto;html=1;exitX=0.5;exitY=1;exitDx=0;exitDy=0;exitPerimeter=0;entryX=0.5;entryY=0;entryDx=0;entryDy=0;entryPerimeter=0;fillColor=#d5e8d4;strokeColor=#B30707;" edge="1" parent="1" source="KvPupSMHEYE9dG7mP5cm-4" target="KvPupSMHEYE9dG7mP5cm-8">
          <mxGeometry relative="1" as="geometry" />
        </mxCell>
        <mxCell id="KvPupSMHEYE9dG7mP5cm-4" value="n1 &amp;lt; n2 &amp;lt; n3" style="strokeWidth=2;html=1;shape=mxgraph.flowchart.decision;whiteSpace=wrap;fillColor=#d5e8d4;strokeColor=#B30707;" vertex="1" parent="1">
          <mxGeometry x="260" y="290" width="150" height="130" as="geometry" />
        </mxCell>
        <mxCell id="KvPupSMHEYE9dG7mP5cm-20" style="edgeStyle=orthogonalEdgeStyle;rounded=0;orthogonalLoop=1;jettySize=auto;html=1;exitX=1;exitY=0.5;exitDx=0;exitDy=0;exitPerimeter=0;entryX=1;entryY=0.5;entryDx=0;entryDy=0;fillColor=#d5e8d4;strokeColor=#B30707;" edge="1" parent="1" source="KvPupSMHEYE9dG7mP5cm-7" target="KvPupSMHEYE9dG7mP5cm-18">
          <mxGeometry relative="1" as="geometry">
            <mxPoint x="670" y="860.7999877929688" as="targetPoint" />
          </mxGeometry>
        </mxCell>
        <mxCell id="KvPupSMHEYE9dG7mP5cm-7" value="n1" style="strokeWidth=2;html=1;shape=mxgraph.flowchart.display;whiteSpace=wrap;fillColor=#d5e8d4;strokeColor=#B30707;" vertex="1" parent="1">
          <mxGeometry x="490" y="313.75" width="160" height="82.5" as="geometry" />
        </mxCell>
        <mxCell id="KvPupSMHEYE9dG7mP5cm-15" style="edgeStyle=orthogonalEdgeStyle;rounded=0;orthogonalLoop=1;jettySize=auto;html=1;exitX=1;exitY=0.5;exitDx=0;exitDy=0;exitPerimeter=0;fillColor=#d5e8d4;strokeColor=#B30707;" edge="1" parent="1" source="KvPupSMHEYE9dG7mP5cm-8" target="KvPupSMHEYE9dG7mP5cm-9">
          <mxGeometry relative="1" as="geometry" />
        </mxCell>
        <mxCell id="KvPupSMHEYE9dG7mP5cm-16" style="edgeStyle=orthogonalEdgeStyle;rounded=0;orthogonalLoop=1;jettySize=auto;html=1;exitX=0.5;exitY=1;exitDx=0;exitDy=0;exitPerimeter=0;entryX=0.5;entryY=0;entryDx=0;entryDy=0;entryPerimeter=0;fillColor=#d5e8d4;strokeColor=#B30707;" edge="1" parent="1" source="KvPupSMHEYE9dG7mP5cm-8" target="KvPupSMHEYE9dG7mP5cm-10">
          <mxGeometry relative="1" as="geometry" />
        </mxCell>
        <mxCell id="KvPupSMHEYE9dG7mP5cm-8" value="n2 &amp;lt; n1 &amp;lt; n3" style="strokeWidth=2;html=1;shape=mxgraph.flowchart.decision;whiteSpace=wrap;fillColor=#d5e8d4;strokeColor=#B30707;" vertex="1" parent="1">
          <mxGeometry x="260" y="460" width="150" height="130" as="geometry" />
        </mxCell>
        <mxCell id="KvPupSMHEYE9dG7mP5cm-21" style="edgeStyle=orthogonalEdgeStyle;rounded=0;orthogonalLoop=1;jettySize=auto;html=1;exitX=1;exitY=0.5;exitDx=0;exitDy=0;exitPerimeter=0;fillColor=#d5e8d4;strokeColor=#B30707;" edge="1" parent="1" source="KvPupSMHEYE9dG7mP5cm-9">
          <mxGeometry relative="1" as="geometry">
            <mxPoint x="670" y="525" as="targetPoint" />
          </mxGeometry>
        </mxCell>
        <mxCell id="KvPupSMHEYE9dG7mP5cm-9" value="n2" style="strokeWidth=2;html=1;shape=mxgraph.flowchart.display;whiteSpace=wrap;fillColor=#d5e8d4;strokeColor=#B30707;" vertex="1" parent="1">
          <mxGeometry x="490" y="483.75" width="160" height="82.5" as="geometry" />
        </mxCell>
        <mxCell id="KvPupSMHEYE9dG7mP5cm-19" style="edgeStyle=orthogonalEdgeStyle;rounded=0;orthogonalLoop=1;jettySize=auto;html=1;exitX=0.5;exitY=1;exitDx=0;exitDy=0;exitPerimeter=0;entryX=0.5;entryY=0;entryDx=0;entryDy=0;fillColor=#d5e8d4;strokeColor=#B30707;" edge="1" parent="1" source="KvPupSMHEYE9dG7mP5cm-10" target="KvPupSMHEYE9dG7mP5cm-18">
          <mxGeometry relative="1" as="geometry" />
        </mxCell>
        <mxCell id="KvPupSMHEYE9dG7mP5cm-10" value="n3" style="strokeWidth=2;html=1;shape=mxgraph.flowchart.display;whiteSpace=wrap;fillColor=#d5e8d4;strokeColor=#B30707;" vertex="1" parent="1">
          <mxGeometry x="255" y="630" width="160" height="82.5" as="geometry" />
        </mxCell>
        <mxCell id="KvPupSMHEYE9dG7mP5cm-22" style="edgeStyle=orthogonalEdgeStyle;rounded=0;orthogonalLoop=1;jettySize=auto;html=1;exitX=0.5;exitY=1;exitDx=0;exitDy=0;entryX=0.5;entryY=0;entryDx=0;entryDy=0;entryPerimeter=0;fillColor=#d5e8d4;strokeColor=#B30707;" edge="1" parent="1" source="KvPupSMHEYE9dG7mP5cm-18" target="KvPupSMHEYE9dG7mP5cm-2">
          <mxGeometry relative="1" as="geometry" />
        </mxCell>
        <mxCell id="KvPupSMHEYE9dG7mP5cm-18" value="" style="ellipse;whiteSpace=wrap;html=1;aspect=fixed;fillColor=#d5e8d4;strokeColor=#B30707;" vertex="1" parent="1">
          <mxGeometry x="295" y="780" width="80" height="80" as="geometry" />
        </mxCell>
      </root>
    </mxGraphModel>
  </diagram>
</mxfile>
